<?xml version="1.0" encoding="UTF-8" standalone="no"?>
<!-- Created with Inkscape (http://www.inkscape.org/) -->

<svg
   xmlns:dc="http://purl.org/dc/elements/1.1/"
   xmlns:cc="http://creativecommons.org/ns#"
   xmlns:rdf="http://www.w3.org/1999/02/22-rdf-syntax-ns#"
   xmlns:svg="http://www.w3.org/2000/svg"
   xmlns="http://www.w3.org/2000/svg"
   xmlns:sodipodi="http://sodipodi.sourceforge.net/DTD/sodipodi-0.dtd"
   xmlns:inkscape="http://www.inkscape.org/namespaces/inkscape"
   width="297mm"
   height="210mm"
   viewBox="0 0 297 210"
   version="1.1"
   id="svg8"
   sodipodi:docname="banner.svg"
   inkscape:version="0.92.2 (5c3e80d, 2017-08-06)"
   inkscape:export-filename="/mnt/sda5/Projects/metabin.space/metabin/banner.png"
   inkscape:export-xdpi="10.04"
   inkscape:export-ydpi="10.04">
  <defs
     id="defs2" />
  <sodipodi:namedview
     id="base"
     pagecolor="#ffffff"
     bordercolor="#666666"
     borderopacity="1.0"
     inkscape:pageopacity="0.0"
     inkscape:pageshadow="2"
     inkscape:zoom="0.99936756"
     inkscape:cx="523.95265"
     inkscape:cy="405.81074"
     inkscape:document-units="mm"
     inkscape:current-layer="layer5"
     inkscape:document-rotation="0"
     showgrid="false"
     inkscape:measure-start="580.923,263.086"
     inkscape:measure-end="831.917,263.183"
     inkscape:window-width="1920"
     inkscape:window-height="1031"
     inkscape:window-x="0"
     inkscape:window-y="0"
     inkscape:window-maximized="1" />
  <metadata
     id="metadata5">
    <rdf:RDF>
      <cc:Work
         rdf:about="">
        <dc:format>image/svg+xml</dc:format>
        <dc:type
           rdf:resource="http://purl.org/dc/dcmitype/StillImage" />
        <dc:title></dc:title>
      </cc:Work>
    </rdf:RDF>
  </metadata>
  <g
     inkscape:groupmode="layer"
     id="layer4"
     inkscape:label="background"
     style="display:inline"
     transform="translate(0,-87)">
    <rect
       style="fill:#161920;fill-opacity:1;stroke:none;stroke-width:1.72221899;stroke-miterlimit:4;stroke-dasharray:none;stroke-opacity:1"
       id="rect4298"
       width="265.62674"
       height="131.82846"
       x="15.68663"
       y="126.08577"
       inkscape:export-xdpi="96"
       inkscape:export-ydpi="96"
       inkscape:export-filename="/mnt/sda5/Projects/metabin.space/metabin-logo/banner.png" />
  </g>
  <g
     inkscape:groupmode="layer"
     id="layer3"
     inkscape:label="Layer 3"
     style="display:inline"
     transform="translate(0,-87)" />
  <g
     inkscape:label="Layer 1"
     inkscape:groupmode="layer"
     id="layer1"
     style="display:inline"
     transform="translate(0,-87)" />
  <g
     inkscape:groupmode="layer"
     id="layer2"
     inkscape:label="Layer 2"
     style="display:inline"
     transform="translate(0,-87)" />
  <g
     inkscape:groupmode="layer"
     id="layer5"
     inkscape:label="nodes"
     style="display:inline"
     transform="translate(0,-87)">
    <text
       xml:space="preserve"
       style="font-style:normal;font-weight:normal;font-size:10.58333302px;line-height:6.61458302px;font-family:sans-serif;letter-spacing:0.26458332px;word-spacing:0px;opacity:0.98000004;fill:#000000;fill-opacity:1;stroke:none;stroke-width:0.26458332px;stroke-linecap:butt;stroke-linejoin:miter;stroke-opacity:1"
       x="126.7071"
       y="195.14941"
       id="text38"
       inkscape:export-filename="/mnt/sda5/Projects/metabin.space/metabin-logo/banner.png"
       inkscape:export-xdpi="96"
       inkscape:export-ydpi="96"><tspan
         sodipodi:role="line"
         id="tspan36"
         x="126.7071"
         y="195.14941"
         style="font-style:normal;font-variant:normal;font-weight:normal;font-stretch:normal;font-size:5.64444447px;font-family:Montserrat;-inkscape-font-specification:'Montserrat, Normal';font-variant-ligatures:normal;font-variant-caps:normal;font-variant-numeric:normal;font-feature-settings:normal;text-align:start;letter-spacing:0.26458332px;writing-mode:lr-tb;text-anchor:start;fill:#ffffff;fill-opacity:1;stroke-width:0.26458332px">PATHEPHONE</tspan></text>
    <text
       xml:space="preserve"
       style="font-style:normal;font-weight:normal;font-size:10.58333302px;line-height:6.61458302px;font-family:sans-serif;letter-spacing:0px;word-spacing:0px;opacity:0.98000004;fill:#000000;fill-opacity:1;stroke:none;stroke-width:0.26458332px;stroke-linecap:butt;stroke-linejoin:miter;stroke-opacity:1"
       x="122.04751"
       y="205.67099"
       id="text847"
       inkscape:export-filename="/mnt/sda5/Projects/metabin.space/metabin-logo/banner.png"
       inkscape:export-xdpi="96"
       inkscape:export-ydpi="96"><tspan
         sodipodi:role="line"
         id="tspan845"
         x="122.04751"
         y="205.67099"
         style="font-style:normal;font-variant:normal;font-weight:normal;font-stretch:normal;font-size:4.58611107px;font-family:'URW Gothic L';-inkscape-font-specification:'URW Gothic L';fill:#ffffff;fill-opacity:1;stroke-width:0.26458332px">distributed audio player</tspan></text>
    <g
       style="display:inline"
       id="g2773"
       transform="translate(1.3237539,0.25416113)">
      <rect
         y="219.4017"
         x="58.749485"
         height="16.149797"
         width="16.414549"
         id="rect2717"
         style="opacity:1;fill:#161920;fill-opacity:1;stroke:none;stroke-width:0.14999999;stroke-linecap:butt;stroke-linejoin:round;stroke-miterlimit:4;stroke-dasharray:none;stroke-opacity:0.14778341;paint-order:normal" />
      <path
         id="path1185"
         d="m 60.207629,220.72746 h 13.49826 v 13.49827 h -13.49826 z"
         inkscape:connector-curvature="0"
         style="opacity:1;fill:#161920;fill-opacity:1;stroke:none;stroke-width:0.56242788;stroke-opacity:0.14778341" />
      <path
         id="path1183"
         d="m 63.582189,228.03904 c -0.30933,0 -0.56242,0.25309 -0.56242,0.56242 0,0.30934 0.25309,0.56243 0.56242,0.56243 0.30934,0 0.56243,-0.25309 0.56243,-0.56243 0,-0.30933 -0.25309,-0.56242 -0.56243,-0.56242 z m 0,2.24971 c -0.30933,0 -0.56242,0.25309 -0.56242,0.56243 0,0.30933 0.25309,0.56242 0.56242,0.56242 0.30934,0 0.56243,-0.25309 0.56243,-0.56242 0,-0.30934 -0.25309,-0.56243 -0.56243,-0.56243 z m 0,-4.49943 c -0.30933,0 -0.56242,0.2531 -0.56242,0.56243 0,0.30934 0.25309,0.56243 0.56242,0.56243 0.30934,0 0.56243,-0.25309 0.56243,-0.56243 0,-0.30933 -0.25309,-0.56243 -0.56243,-0.56243 z m -1.68728,0.28122 c -0.15748,0 -0.28122,0.12373 -0.28122,0.28121 0,0.15748 0.12374,0.28121 0.28122,0.28121 0.15748,0 0.28121,-0.12374 0.28121,-0.28121 0,-0.15749 -0.12373,-0.28121 -0.28121,-0.28121 z m 1.68728,-2.53093 c -0.30933,0 -0.56242,0.25309 -0.56242,0.56243 0,0.30934 0.25309,0.56243 0.56242,0.56243 0.30934,0 0.56243,-0.25309 0.56243,-0.56243 0,-0.30934 -0.25309,-0.56243 -0.56243,-0.56243 z m 8.43642,3.09335 c 0.15748,0 0.28122,-0.12374 0.28122,-0.28121 0,-0.15749 -0.12374,-0.28121 -0.28122,-0.28121 -0.15748,0 -0.28121,0.12373 -0.28121,0.28121 0,0.15748 0.12373,0.28121 0.28121,0.28121 z m -3.93699,-1.96849 c 0.30933,0 0.56243,-0.25309 0.56243,-0.56243 0,-0.30934 -0.2531,-0.56243 -0.56243,-0.56243 -0.30934,0 -0.56243,0.25309 -0.56243,0.56243 0,0.30934 0.25309,0.56243 0.56243,0.56243 z m 0,-1.9685 c 0.15748,0 0.28121,-0.12373 0.28121,-0.28121 0,-0.15748 -0.12373,-0.28122 -0.28121,-0.28122 -0.15748,0 -0.28122,0.12374 -0.28122,0.28122 0,0.15748 0.12374,0.28121 0.28122,0.28121 z m -6.18671,5.62428 c -0.15748,0 -0.28122,0.12373 -0.28122,0.28121 0,0.15748 0.12374,0.28122 0.28122,0.28122 0.15748,0 0.28121,-0.12374 0.28121,-0.28122 0,-0.15749 -0.12373,-0.28121 -0.28121,-0.28121 z m 3.937,3.93699 c -0.15749,0 -0.28122,0.12374 -0.28122,0.28122 0,0.15748 0.12373,0.28121 0.28122,0.28121 0.15747,0 0.28121,-0.12374 0.28121,-0.28121 0,-0.15748 -0.12374,-0.28122 -0.28121,-0.28122 z m 0,-9.56127 c 0.15747,0 0.28121,-0.12373 0.28121,-0.28121 0,-0.15748 -0.12374,-0.28122 -0.28121,-0.28122 -0.15749,0 -0.28122,0.12374 -0.28122,0.28122 0,0.15748 0.12373,0.28121 0.28122,0.28121 z m 0,1.9685 c 0.30933,0 0.56242,-0.25309 0.56242,-0.56243 0,-0.30934 -0.25309,-0.56243 -0.56242,-0.56243 -0.30934,0 -0.56243,0.25309 -0.56243,0.56243 0,0.30934 0.25309,0.56243 0.56243,0.56243 z m 0,3.09335 c -0.46682,0 -0.84365,0.37683 -0.84365,0.84364 0,0.46681 0.37683,0.84364 0.84365,0.84364 0.46681,0 0.84364,-0.37683 0.84364,-0.84364 0,-0.46681 -0.37683,-0.84364 -0.84364,-0.84364 z m 4.49942,0.28122 c -0.30934,0 -0.56243,0.25309 -0.56243,0.56242 0,0.30934 0.25309,0.56243 0.56243,0.56243 0.30933,0 0.56243,-0.25309 0.56243,-0.56243 0,-0.30933 -0.2531,-0.56242 -0.56243,-0.56242 z m 0,2.24971 c -0.30934,0 -0.56243,0.25309 -0.56243,0.56243 0,0.30933 0.25309,0.56242 0.56243,0.56242 0.30933,0 0.56243,-0.25309 0.56243,-0.56242 0,-0.30934 -0.2531,-0.56243 -0.56243,-0.56243 z m 0,-4.49943 c -0.30934,0 -0.56243,0.2531 -0.56243,0.56243 0,0.30934 0.25309,0.56243 0.56243,0.56243 0.30933,0 0.56243,-0.25309 0.56243,-0.56243 0,-0.30933 -0.2531,-0.56243 -0.56243,-0.56243 z m 0,-2.24971 c -0.30934,0 -0.56243,0.25309 -0.56243,0.56243 0,0.30934 0.25309,0.56243 0.56243,0.56243 0.30933,0 0.56243,-0.25309 0.56243,-0.56243 0,-0.30934 -0.2531,-0.56243 -0.56243,-0.56243 z m 1.68728,4.78064 c -0.15748,0 -0.28121,0.12373 -0.28121,0.28121 0,0.15748 0.12373,0.28122 0.28121,0.28122 0.15748,0 0.28122,-0.12374 0.28122,-0.28122 0,-0.15749 -0.12374,-0.28121 -0.28122,-0.28121 z m -3.93699,1.9685 c -0.30934,0 -0.56243,0.25309 -0.56243,0.56243 0,0.30933 0.25309,0.56242 0.56243,0.56242 0.30933,0 0.56243,-0.25309 0.56243,-0.56242 0,-0.30934 -0.2531,-0.56243 -0.56243,-0.56243 z m 0,1.96849 c -0.15748,0 -0.28122,0.12374 -0.28122,0.28122 0,0.15748 0.12374,0.28121 0.28122,0.28121 0.15748,0 0.28121,-0.12374 0.28121,-0.28121 0,-0.15748 -0.12373,-0.28122 -0.28121,-0.28122 z m -2.24971,-6.74913 c -0.46682,0 -0.84365,0.37683 -0.84365,0.84364 0,0.46682 0.37683,0.84364 0.84365,0.84364 0.46681,0 0.84364,-0.37682 0.84364,-0.84364 0,-0.46681 -0.37683,-0.84364 -0.84364,-0.84364 z m 0,4.78064 c -0.30934,0 -0.56243,0.25309 -0.56243,0.56243 0,0.30933 0.25309,0.56242 0.56243,0.56242 0.30933,0 0.56242,-0.25309 0.56242,-0.56242 0,-0.30934 -0.25309,-0.56243 -0.56242,-0.56243 z m 2.24971,-2.53093 c -0.46682,0 -0.84365,0.37683 -0.84365,0.84364 0,0.46681 0.37683,0.84364 0.84365,0.84364 0.46681,0 0.84364,-0.37683 0.84364,-0.84364 0,-0.46681 -0.37683,-0.84364 -0.84364,-0.84364 z m 0,-2.24971 c -0.46682,0 -0.84365,0.37683 -0.84365,0.84364 0,0.46682 0.37683,0.84364 0.84365,0.84364 0.46681,0 0.84364,-0.37682 0.84364,-0.84364 0,-0.46681 -0.37683,-0.84364 -0.84364,-0.84364 z"
         inkscape:connector-curvature="0"
         style="fill:#fdfdfd;fill-opacity:1;stroke:none;stroke-width:0.56242788;stroke-opacity:1" />
    </g>
    <text
       id="text1519"
       y="244.89156"
       x="55.220615"
       style="font-style:normal;font-weight:normal;font-size:10.58333302px;line-height:6.61458302px;font-family:sans-serif;letter-spacing:0px;word-spacing:0px;fill:#000000;fill-opacity:1;stroke:none;stroke-width:0.26458332px;stroke-linecap:butt;stroke-linejoin:miter;stroke-opacity:1"
       xml:space="preserve"><tspan
         style="font-style:normal;font-variant:normal;font-weight:normal;font-stretch:normal;font-size:4.23333311px;font-family:Montserrat;-inkscape-font-specification:Montserrat;fill:#ffffff;fill-opacity:1;stroke-width:0.26458332px"
         y="244.89156"
         x="55.220615"
         id="tspan1517"
         sodipodi:role="line">peer to peer</tspan></text>
    <flowRoot
       xml:space="preserve"
       id="flowRoot1099"
       style="fill:black;fill-opacity:1;stroke:none;font-family:sans-serif;font-style:normal;font-weight:normal;font-size:40px;line-height:1.25;letter-spacing:0px;word-spacing:0px"><flowRegion
         id="flowRegion1101"><rect
           id="rect1103"
           width="1137.7195"
           height="355.22467"
           x="22.013922"
           y="110.26855" /></flowRegion><flowPara
         id="flowPara1105"></flowPara></flowRoot>    <g
       transform="matrix(2.2048645,0,0,2.2048645,134.52428,-473.307)"
       id="layer1-1"
       inkscape:label="Layer 1">
      <path
         id="path878"
         d="m 9.0790296,286.15877 -1.4465139,5.39832 H 6.5366002 l 0.7722418,-2.8818 H 4.5074661 l -1.5954628,5.9544 a 5.2619102,5.2619102 0 0 0 0.7089331,0.51154 l 1.5135733,-5.64877 h 1.1093277 l -0.772107,2.88181 h 2.7878282 l 1.528438,-5.70393 a 5.2619102,5.2619102 0 0 0 -0.708967,-0.51157 z"
         style="fill:none;fill-opacity:1;stroke:none;stroke-width:0.98060721;stroke-linecap:butt;stroke-miterlimit:4;stroke-dasharray:none;stroke-opacity:1"
         inkscape:connector-curvature="0" />
      <g
         transform="matrix(1.1275073,0,0,1.1275073,-0.8096722,-37.059997)"
         id="g4516">
        <path
           inkscape:connector-curvature="0"
           style="fill:#ff2655;fill-opacity:1;stroke:none;stroke-width:0.98060721;stroke-linecap:butt;stroke-miterlimit:4;stroke-dasharray:none;stroke-opacity:1"
           d="m 9.788031,286.67034 -1.528438,5.70393 H 5.4717648 l 0.772107,-2.88181 H 5.1345441 l -1.5135733,5.64877 A 5.2619102,5.2619102 0 0 0 6.3499835,295.91191 5.2619102,5.2619102 0 0 0 11.6119,290.65 5.2619102,5.2619102 0 0 0 9.788031,286.67034 Z"
           id="path880" />
        <path
           inkscape:connector-curvature="0"
           style="fill:#ff2655;fill-opacity:1;stroke:none;stroke-width:0.98060721;stroke-linecap:butt;stroke-miterlimit:4;stroke-dasharray:none;stroke-opacity:1"
           d="m 6.3499835,285.38809 a 5.2619102,5.2619102 0 0 0 -5.261882,5.26191 5.2619102,5.2619102 0 0 0 1.8239362,3.97969 l 1.5954628,-5.9544 h 2.8013759 l -0.7722418,2.8818 h 1.0959155 l 1.4465139,-5.39832 a 5.2619102,5.2619102 0 0 0 -2.7290805,-0.77068 z"
           id="path855" />
      </g>
    </g>
    <path
       style="fill:none;stroke:#fbfbfb;stroke-width:0.21016516px;stroke-linecap:butt;stroke-linejoin:miter;stroke-opacity:0.31764706"
       d="m 141.50927,199.04221 h 14.03179"
       id="path2734"
       inkscape:connector-curvature="0" />
    <text
       id="text1519-6"
       y="244.87039"
       x="222.36748"
       style="font-style:normal;font-weight:normal;font-size:10.58333302px;line-height:6.61458349px;font-family:sans-serif;letter-spacing:0px;word-spacing:0px;display:inline;fill:#000000;fill-opacity:1;stroke:none;stroke-width:0.26458332px;stroke-linecap:butt;stroke-linejoin:miter;stroke-opacity:1"
       xml:space="preserve"><tspan
         style="font-style:normal;font-variant:normal;font-weight:normal;font-stretch:normal;font-size:4.23333311px;font-family:Montserrat;-inkscape-font-specification:Montserrat;fill:#ffffff;fill-opacity:1;stroke-width:0.26458332px"
         y="244.87039"
         x="222.36748"
         id="tspan1517-0"
         sodipodi:role="line">easy to use</tspan></text>
    <g
       id="g2817"
       transform="translate(138.57164,124.1312)">
      <circle
         id="circle2736"
         r="1.2957571"
         cy="102.30381"
         cx="91.555382"
         style="fill:#fefefe;fill-opacity:1;stroke-width:0.5183028" />
      <circle
         id="circle2738"
         r="1.2957571"
         cy="100.2306"
         cx="93.887749"
         style="fill:#fefefe;fill-opacity:1;stroke-width:0.5183028" />
      <circle
         id="circle2740"
         r="1.2957571"
         cy="100.2306"
         cx="96.997566"
         style="fill:#fefefe;fill-opacity:1;stroke-width:0.5183028" />
      <circle
         id="circle2742"
         r="1.2957571"
         cy="102.30381"
         cx="99.329926"
         style="fill:#fefefe;fill-opacity:1;stroke-width:0.5183028" />
      <path
         id="path2744"
         d="m 98.210392,105.08191 c -0.450924,-0.52867 -0.829285,-0.97959 -1.285391,-1.50826 -0.238419,-0.27988 -0.544218,-0.55977 -0.90703,-0.68416 -0.05701,-0.0207 -0.114027,-0.0363 -0.17104,-0.0466 -0.129576,-0.0207 -0.269517,-0.0207 -0.404276,-0.0207 -0.134759,0 -0.274701,0 -0.409459,0.0259 -0.05701,0.0104 -0.114027,0.0259 -0.17104,0.0466 -0.362812,0.1244 -0.663428,0.40428 -0.90703,0.68416 -0.450924,0.52867 -0.829285,0.9796 -1.285391,1.50826 -0.678977,0.67898 -1.513444,1.43052 -1.357954,2.48268 0.150308,0.52866 0.528669,1.05215 1.207646,1.20246 0.378361,0.0777 1.586007,-0.22806 2.871398,-0.22806 h 0.09329 c 1.285391,0 2.493037,0.30062 2.871398,0.22806 0.678976,-0.15031 1.057337,-0.67898 1.207645,-1.20246 0.160674,-1.05734 -0.673793,-1.80888 -1.35277,-2.48786 z"
         inkscape:connector-curvature="0"
         style="fill:#fefefe;fill-opacity:1;stroke-width:0.5183028" />
      <path
         id="path2746"
         d="M 89.223021,97.379932 H 101.66229 V 109.8192 H 89.223021 Z"
         inkscape:connector-curvature="0"
         style="fill:none;stroke-width:0.5183028" />
    </g>
    <text
       id="text1519-6-6"
       y="244.89156"
       x="135.17908"
       style="font-style:normal;font-weight:normal;font-size:10.58333302px;line-height:6.61458349px;font-family:sans-serif;letter-spacing:0px;word-spacing:0px;display:inline;fill:#000000;fill-opacity:1;stroke:none;stroke-width:0.26458332px;stroke-linecap:butt;stroke-linejoin:miter;stroke-opacity:1"
       xml:space="preserve"><tspan
         style="font-style:normal;font-variant:normal;font-weight:normal;font-stretch:normal;font-size:4.23333311px;font-family:Montserrat;-inkscape-font-specification:Montserrat;fill:#ffffff;fill-opacity:1;stroke-width:0.26458332px"
         y="244.89156"
         x="135.17908"
         id="tspan1517-0-2"
         sodipodi:role="line">open source</tspan></text>
    <g
       id="g2878"
       transform="translate(-30.711087,113.40879)">
      <path
         id="path2858"
         d="m 172.09001,107.44046 h 13.76302 v 13.76302 h -13.76302 z"
         inkscape:connector-curvature="0"
         style="fill:none;stroke-width:0.57345921" />
      <path
         id="path2860"
         d="m 177.48053,116.95988 -2.63792,-2.63791 2.63792,-2.63791 -0.80285,-0.80284 -3.44075,3.44075 3.44075,3.44076 z m 2.98198,0 2.63792,-2.63791 -2.63792,-2.63791 0.80285,-0.80284 3.44075,3.44075 -3.44075,3.44076 z"
         inkscape:connector-curvature="0"
         style="fill:#ffffff;fill-opacity:1;stroke-width:0.57345921" />
    </g>
  </g>
  <g
     inkscape:groupmode="layer"
     id="layer6"
     inkscape:label="text"
     style="display:none"
     transform="translate(0,-87)">
    <flowRoot
       xml:space="preserve"
       id="flowRoot4300"
       style="font-style:normal;font-weight:normal;font-size:40px;line-height:25px;font-family:sans-serif;letter-spacing:0px;word-spacing:0px;fill:#000000;fill-opacity:1;stroke:none;stroke-width:1px;stroke-linecap:butt;stroke-linejoin:miter;stroke-opacity:1"
       transform="matrix(0.26458333,0,0,0.26458333,0.00928892,-12.602874)"><flowRegion
         id="flowRegion4302"><rect
           id="rect4304"
           width="298.46231"
           height="62.69022"
           x="202.72598"
           y="709.2262" /></flowRegion><flowPara
         id="flowPara4306"
         style="font-style:normal;font-variant:normal;font-weight:normal;font-stretch:normal;font-size:18.66666603px;font-family:Cantarell;-inkscape-font-specification:Cantarell;text-align:center;text-anchor:middle;fill:#eeeeee;fill-opacity:1">METABIN.SPACE</flowPara></flowRoot>  </g>
</svg>
